<svg xmlns="http://www.w3.org/2000/svg" viewBox="0 0 480 480" fill="currentColor"><g transform="translate(0.000000,480.000000) scale(0.100000,-0.100000)"><path d="M3231 3480 c-43 -10 -90 -57 -100 -101 -17 -78 -16 -79 358 -453 193 -193 351 -357 351 -363 0 -10 -336 -13 -1569 -15 -1568 -3 -1570 -3 -1597 -24 -91 -67 -91 -171 0 -238 27 -21 29 -21 1607 -24 868 -1 1579 -6 1579 -10 0 -4 -169 -176 -376 -383 -399 -399 -400 -400 -383 -478 9 -44 56 -90 102 -101 84 -19 80 -22 514 412 223 222 409 412 415 422 17 32 21 185 6 241 -9 34 -11 63 -5 90 10 51 -9 222 -28 252 -17 25 -749 754 -768 764 -23 12 -72 16 -106 9z"/></g></svg>
