<svg xmlns="http://www.w3.org/2000/svg" viewBox="0 0 480 480" fill="currentColor"><g transform="translate(0.000000,480.000000) scale(0.100000,-0.100000)"><path d="M1147 4000 c-103 -26 -136 -58 -208 -200 l-54 -105 0 -1290 0 -1290 56 -113 c31 -63 67 -124 79 -137 33 -35 113 -60 195 -59 l71 0 374 208 c206 115 465 259 575 321 110 61 324 181 475 265 810 452 802 447 939 552 162 126 186 151 195 212 12 80 -2 136 -44 176 -149 141 -259 208 -1130 692 -470 262 -973 541 -1117 622 -280 156 -315 168 -406 146z m301 -421 c119 -67 602 -335 1072 -597 716 -397 980 -553 980 -576 0 -17 -187 -136 -400 -255 -146 -81 -389 -217 -540 -301 -151 -84 -365 -204 -475 -265 -505 -283 -852 -475 -861 -475 -6 0 -20 20 -32 45 l-22 46 0 1204 0 1204 22 46 c12 25 26 45 30 45 4 0 106 -55 226 -121z"/></g></svg>
